<?xml version="1.0" encoding="UTF-8"?>
<svg version="1.1" xmlns="http://www.w3.org/2000/svg" width="63" height="53">
<path d="M0 0 C20.79 0 41.58 0 63 0 C63 17.49 63 34.98 63 53 C42.21 53 21.42 53 0 53 C0 35.51 0 18.02 0 0 Z " fill="#1F1F2F" transform="translate(0,0)"/>
<path d="M0 0 C12.24185013 -0.40357748 12.24185013 -0.40357748 17 3 C18 4 18 4 18.375 7.8125 C18.31577895 11.11111229 18.15649926 11.80437593 16 14.5 C12.01367043 16.49316478 9.41916048 16.2996041 5 16 C5 17.98 5 19.96 5 22 C3.35 22 1.7 22 0 22 C0 14.74 0 7.48 0 0 Z " fill="#C4CDEA" transform="translate(14,14)"/>
<path d="M0 0 C1.65 0 3.3 0 5 0 C5.08710289 3.10398978 5.14042309 6.20766548 5.1875 9.3125 C5.21263672 10.19357422 5.23777344 11.07464844 5.26367188 11.98242188 C5.27817383 13.25375977 5.27817383 13.25375977 5.29296875 14.55078125 C5.31653442 15.72120972 5.31653442 15.72120972 5.34057617 16.9152832 C4.90828162 19.56142169 4.12187012 20.40328118 2 22 C-1.1875 22.6875 -1.1875 22.6875 -4 23 C-4.33 21.35 -4.66 19.7 -5 18 C-3.68 17.67 -2.36 17.34 -1 17 C-0.67 11.39 -0.34 5.78 0 0 Z " fill="#C2CAE8" transform="translate(36,14)"/>
<path d="M0 0 C2.875 -0.125 2.875 -0.125 6 0 C8 2 8 2 8.125 4.625 C8.08375 5.40875 8.0425 6.1925 8 7 C5.29120665 8.35439668 2.99066732 8.06501451 0 8 C0 5.36 0 2.72 0 0 Z " fill="#2A2A3B" transform="translate(19,18)"/>
<path d="M0 0 C1.65 0 3.3 0 5 0 C5 1.65 5 3.3 5 5 C1.25 6.125 1.25 6.125 -1 5 C-0.67 3.35 -0.34 1.7 0 0 Z " fill="#E4A47E" transform="translate(44,31)"/>
</svg>
